<?xml version="1.0" encoding="utf-8"?>
<!-- Generator: Adobe Illustrator 19.0.1, SVG Export Plug-In . SVG Version: 6.00 Build 0)  -->
<svg version="1.1" id="Layer_1" xmlns="http://www.w3.org/2000/svg" xmlns:xlink="http://www.w3.org/1999/xlink" x="0px" y="0px"
	 viewBox="0 0 128 128" style="enable-background:new 0 0 128 128;" xml:space="preserve">
<style type="text/css">
	.st0{display:none;fill:#0C0C0C;}
	.st1{fill:#0C0C0C;}
</style>
<path id="reading_glasses_4_" class="st0" d="M124.1,49.9c-0.8-2.3-3-5.4-7-6c0,0-10.9-2-21.4-1.7c-9.8,0.3-18.5,2.1-20.7,3.1
	c-7.9,3.5-13.4,3.6-22,0c-1.4-0.6-10.9-2.8-20.7-3.1C21.7,41.9,10.9,44,10.9,44c-4,0.6-6.2,3.7-7,6C3,52.3,0,52,0,52l0.7,10.5
	c0,0,2.7,1,3.4,1.7c0.7,0.7,3.7,14.3,8,17.7c5.5,4.3,22,5,30.5,2.3c3.1-1,12-4.8,15.9-20.6c0.3-1.2,1-4.7,1-4.7h9.1
	c0,0,0.7,3.5,1,4.7c3.9,15.8,12.8,19.6,15.9,20.6c8.5,2.6,25,2,30.5-2.3c4.3-3.4,7.2-17,8-17.7c0.7-0.7,3.4-1.7,3.4-1.7L128,52
	C128,52,125,52.3,124.1,49.9z M54.4,59.8c-1.1,15.1-11.1,20.3-13.7,21.1c-6.9,2.1-21.8,0.4-25.5-2.2C11,75.8,9.5,65,9.4,64.1
	C9.1,62.2,9,60,9.1,58c0-1.5,0.2-2.9,0.3-4c0.1-0.6,0.3-1.1,0.4-1.5c1.5-6.3,13.9-6.5,22.5-6.2c8,0.2,15.8,2.1,16.9,2.5
	C56.2,51.4,54.3,57.7,54.4,59.8z M118.6,64.1c-0.1,0.8-1.9,12-5.9,14.6c-3.7,2.4-18.5,4.3-25.5,2.2c-2.5-0.8-12.5-6-13.7-21.1
	c0.1-2.1-1.8-8.4,5.3-11.1c1.1-0.4,8.9-2.3,16.9-2.5c8.6-0.2,21,0,22.5,6.2c0.1,0.4,0.3,0.9,0.4,1.5c0.2,1.1,0.3,2.5,0.3,4
	C119,60,118.9,62.2,118.6,64.1z M25.5,74.5c-0.8,0.9-2.8,2.2-3.9,0.2c-1.1-2-7.3-13.5-9.5-15.7c-0.6-0.6-1.2-0.9-1.8-1
	c0-1.5,0.2-2.9,0.3-4c0.8,0.3,1.6,0.6,2,1c1.2,1.2,12.1,14,12.4,14.9C25.4,70.9,26.3,73.5,25.5,74.5z M102.9,69.9
	c0.3-0.9,11.2-13.7,12.4-14.9c0.4-0.4,1.1-0.7,2-1c0.2,1.1,0.3,2.5,0.3,4c-0.6,0.1-1.2,0.4-1.8,1c-2.2,2.2-8.4,13.7-9.5,15.7
	c-1.1,2-3,0.7-3.9-0.2C101.7,73.5,102.6,70.9,102.9,69.9z"/>
<path id="reading_glasses_3_" class="st0" d="M123.4,56c0-0.2,0-0.4-0.1-0.5c-0.5-3.1-4-3.6-5.9-3.9c-1.5-0.3-24-3.9-41,1.1
	c-1.9,0.6-3.2,1.4-3.9,2.4c-1.4-0.3-5-0.9-8.5-0.9c-3.3,0-6.8,0.6-8.4,0.9c-0.7-1-2-1.8-3.8-2.4c-17-5-39.5-1.4-41-1.1
	c-1.8,0.3-5.4,0.8-5.9,3.9c0,0.2-0.1,0.3-0.1,0.5H0v7.9h4.6C4.6,67,4.8,70,5,71.2c0.4,2.5,0.6,4,1.9,4.8c0.7,0.4,11.3,2.1,21.7,2
	c10,0,19.9-1.8,20.7-2.1c1.7-0.6,1.9-0.9,3-2.1c0.5-0.6,1.5-4,2.3-7.7l1.3,0.2c-0.4,1-0.9,2.1-1.7,3.2l1.7,1.2
	c3.5-4.8,2.6-9.5,2.6-9.7l-2,0.4c0,0.1,0.2,1.2,0,2.9L55.1,64c0.5-2.2,0.8-4.4,1-5.9c1.5-0.3,4.8-0.8,7.9-0.8c3.4,0,6.9,0.6,8.1,0.9
	c0.1,1.6,0.5,3.7,1,5.9l-1.3,0.2c-0.2-1.7-0.1-2.8,0-2.9l-2-0.4c0,0.2-0.9,4.8,2.6,9.7l1.7-1.2c-0.8-1.1-1.3-2.2-1.7-3.2l1.3-0.2
	c0.9,3.7,1.8,7,2.3,7.6c1,1.3,1.3,1.5,3,2.1c0.8,0.3,10.7,2.1,20.7,2.1c10.4,0.1,21-1.7,21.7-2c1.3-0.7,1.5-2.3,1.9-4.8
	c0.2-1.2,0.4-4.2,0.4-7.4h4.5V56H123.4z M50.9,72.8c-1,1.2-1.2,1.4-2.8,1.9c-0.8,0.3-10,1.9-19.4,2c-9.8,0-19.7-1.5-20.4-1.9
	c-1.2-0.7-1.4-2.1-1.8-4.4c-0.2-1.1-0.3-3.9-0.4-6.8l8.5-3c0,0,6.9,9,8.4,9.9c1.5,0.9,1.5-3.3,1.5-3.3l-9.4-9.8l-8.7-1.5
	c0.5-2.8,3.8-3.2,5.5-3.5c1.4-0.2,22.5-3.5,38.5,1c2.2,0.6,3.6,1.7,4,3C55.1,58.7,51.9,71.7,50.9,72.8z M121.6,70.5
	c-0.4,2.3-0.6,3.7-1.8,4.4c-0.6,0.3-10.6,1.9-20.4,1.9c-9.4,0-18.7-1.7-19.4-2c-1.6-0.6-1.8-0.8-2.8-1.9c-1-1.2-4.2-14.1-3.5-16.2
	c0.4-1.3,1.8-2.4,4-3c16-4.5,37.1-1.3,38.5-1c1.7,0.3,5,0.7,5.5,3.4l-8.8,1.5l-9.4,9.8c0,0,0,4.2,1.5,3.3c1.5-0.9,8.4-9.9,8.4-9.9
	l8.6,3C121.9,66.6,121.7,69.4,121.6,70.5z"/>
<path id="reading_glasses_5_" class="st0" d="M0.8,54.9c0.1,0,0.7-0.5,1.7-1.1C1.9,54,1.3,54.3,0.8,54.9z M125.5,53.9
	c0.9,0.6,1.6,1,1.7,1.1C126.7,54.3,126.1,54,125.5,53.9z M28.8,58.3c-0.3-0.3-0.7-0.7-1.3-1c-1-0.7-2.2-1.4-3.5-2.2
	c-2,0.1-4.1,0.2-6.2,0.5c0.6,0.5,1.4,1.2,2.1,2.1c2.3,2.5,5,5.9,6.7,7C28.5,65.8,30.4,59.9,28.8,58.3z M104,55.1
	c-1.3,0.7-2.5,1.5-3.5,2.2c-0.5,0.4-1,0.7-1.3,1c-1.6,1.6,0.3,7.5,2.2,6.3c1.7-1.1,4.4-4.5,6.7-7c0.7-0.8,1.5-1.5,2.1-2.1
	C108.1,55.4,106,55.2,104,55.1z M28.8,58.3c-0.3-0.3-0.7-0.7-1.3-1c-1-0.7-2.2-1.4-3.5-2.2c-2,0.1-4.1,0.2-6.2,0.5
	c0.6,0.5,1.4,1.2,2.1,2.1c2.3,2.5,5,5.9,6.7,7C28.5,65.8,30.4,59.9,28.8,58.3z M104,55.1c-1.3,0.7-2.5,1.5-3.5,2.2
	c-0.5,0.4-1,0.7-1.3,1c-1.6,1.6,0.3,7.5,2.2,6.3c1.7-1.1,4.4-4.5,6.7-7c0.7-0.8,1.5-1.5,2.1-2.1C108.1,55.4,106,55.2,104,55.1z
	 M127.7,55.7c-0.1-0.3-0.3-0.6-0.5-0.8c0,0,0,0,0,0c-0.1,0-0.7-0.5-1.7-1.1c-2.7-1.7-7.9-5-9-5.5c-2.1-0.8-3-0.8-5.3,0.5
	c-1.1,0.6-2.8,1.5-4.5,2.5C90,50.5,76.9,53.6,75.3,54c-8.2,2.1-13.2,2.3-22.6,0c-1.6-0.4-14.7-3.5-31.4-2.7c-1.7-1-3.4-1.9-4.5-2.5
	c-2.3-1.3-3.2-1.3-5.3-0.5c-1.1,0.5-6.3,3.8-9,5.5c-0.9,0.6-1.6,1-1.7,1.1h0c-0.2,0.2-0.4,0.5-0.5,0.8c-0.6,1.4-0.1,13.6,0.5,15
	c0.9,1.9,2.8,3.6,4.9,4.6c14,7.1,39.4,4.6,42.9,3.7c1.9-0.5,6-2.1,7.9-5.5c1.9-3.3,3.8-9,5.4-11.7c0.8-1.3,3.4-1.1,4,0
	c1.6,3,3.1,8,4.9,11.1c2.2,3.8,6.5,5.6,8.4,6.1c3.5,0.9,28.9,3.4,42.9-3.7c2-1,3.8-2.6,4.9-4.6C127.9,69.3,128.3,57.1,127.7,55.7z
	 M13.2,50.9c0.5,0,1.2,0.3,1.9,0.9c-1.8,0.2-3.6,0.4-5.4,0.7C10.8,51.6,12.1,50.9,13.2,50.9z M50.1,76.1c-4.4,2-10.7,1.7-17.2,1.7
	c-13.2,0-22.5-2.1-24.4-8.2c-1-3.2-2.4-10.7,1.9-13.7c1.5-1.1,4-1.7,6.9-2c2.4-0.3,5-0.4,7.6-0.4c3,0,6,0.1,8.3,0.1
	c7.4,0,17.6,1.5,22.1,4C59.1,59.8,58.5,72.2,50.1,76.1z M114.8,50.9c1.1,0.1,2.4,0.8,3.5,1.6c-1.8-0.3-3.7-0.5-5.4-0.7
	C113.6,51.2,114.3,50.8,114.8,50.9z M119.6,69.6c-1.9,6.1-11.2,8.2-24.4,8.2c-6.6,0-12.9,0.4-17.2-1.7c-8.4-3.9-9.1-16.3-5.1-18.5
	c4.5-2.5,14.6-4,22.1-4c2.3,0,5.2-0.1,8.3-0.1c2.6,0,5.2,0.1,7.6,0.4c2.9,0.3,5.4,0.9,6.9,2C122,58.9,120.6,66.6,119.6,69.6z"/>
<path id="reading_glasses" class="st0" d="M127.9,53.9c-3.9-0.1-5.3-0.1-5.9-0.6c-4.6-4.4-15.3-4-25.6-3.2c-7.7,0.6-16,1.8-21.3,4.6
	c-1.3,0.7-7,2.8-11.1,3c-4.1-0.2-9.8-2.3-11.1-3c-5.2-2.8-13.5-4-21.3-4.6c-10.3-0.8-21-1.1-25.6,3.2c-0.6,0.5-2,0.5-5.9,0.6
	c-0.3,1.3,0,4.8,0,4.8s3.4,1.9,3.6,3.5c0.9,8.9,6,14.1,21.9,15.9C35.8,79.2,54,78.3,57,66.4c0.1-0.4,1.2-3.2,2.3-3.9
	c1.4-0.9,3.1-1.1,4.2-1.1c0.2,0,0.4,0,0.5,0c0.1,0,0.3,0,0.5,0c1.1,0,2.8,0.1,4.2,1.1c1.1,0.7,2.2,3.4,2.3,3.9
	c3,11.8,21.2,12.8,31.5,11.7c15.8-1.8,21-7,21.9-15.9c0.2-1.6,3.6-3.5,3.6-3.5S128.2,55.2,127.9,53.9z M53.8,66
	C51.2,76.1,35,76.9,25.9,75.9C11.8,74.4,8,70.2,6.2,62.8c-0.4-1.5-0.3-3-0.1-4.3c3.3-0.4,10-1.2,10.8-0.8c1,0.5,11.4,13.4,11.4,13.4
	s6.5-0.5,2.6-4c-3.9-3.5-12.4-12.6-14-13c-1-0.3-5.2-0.2-8.2-0.1c4.6-2.9,14.1-2.7,22.6-2c8.6,0.7,18.1,2.2,21.9,6.1
	C55,60.1,54.4,63.8,53.8,66z M121.8,62.8c-1.9,7.4-5.7,11.5-19.8,13.1c-9.1,1-25.3,0.2-27.9-9.9c-0.6-2.2-1.2-6,0.7-7.9
	c3.8-4,13.3-5.5,21.9-6.1c8.4-0.7,17.9-0.9,22.5,2c-2.6,0-5.4,0-6.2,0.2c-1.6,0.4-10.1,9.5-14,13c-3.9,3.5,2.6,4,2.6,4
	s10.4-13,11.4-13.4c0.6-0.3,5.3,0.2,8.8,0.6C122.1,59.6,122.2,61.2,121.8,62.8z"/>
<path id="eyewear_2_" class="st0" d="M13.3,64h2.4c0-9,7.3-16.2,16.2-16.2v-2.4C21.6,45.3,13.3,53.7,13.3,64z M13.3,64h2.4
	c0-9,7.3-16.2,16.2-16.2v-2.4C21.6,45.3,13.3,53.7,13.3,64z M13.3,64h2.4c0-9,7.3-16.2,16.2-16.2v-2.4C21.6,45.3,13.3,53.7,13.3,64z
	 M127.3,62.2c-0.4-0.4-1-0.7-1.6-0.7h-4.1c-1.2-13-12.2-23.2-25.5-23.2c-12.1,0-22.3,8.4-25,19.7c-1.8-1.9-4.3-3.1-7-3.1
	c-2.8,0-5.3,1.2-7.1,3.2c-2.7-11.3-12.8-19.8-25-19.8c-13.4,0-24.3,10.2-25.5,23.2H2.3c-0.6,0-1.2,0.3-1.6,0.7
	c-0.4,0.4-0.7,1-0.7,1.6c0,1.2,1,2.3,2.3,2.3h4.1c1.1,13.2,12.1,23.6,25.6,23.6c13.8,0,25-10.8,25.6-24.4c0,0,0.7-6.6,6.5-6.6
	c6,0,6.4,6.6,6.4,6.6c0.6,13.6,11.9,24.4,25.6,24.4c13.5,0,24.5-10.4,25.6-23.6h4.1c1.2,0,2.3-1,2.3-2.3
	C128,63.2,127.8,62.7,127.3,62.2z M31.9,86.3c-12.3,0-22.3-10-22.3-22.3v-0.2c0.1-12.2,10-22.1,22.3-22.1c12.3,0,22.3,10,22.3,22.3
	S44.3,86.3,31.9,86.3z M118.3,64c0,12.3-10,22.3-22.3,22.3c-11.9,0-21.6-9.3-22.2-21.1c0-0.4,0-0.8,0-1.2v-0.1
	c0.1-12.2,10-22.1,22.3-22.1c12.2,0,22.2,9.9,22.3,22.1V64z"/>
<path id="eyewear_1_" class="st0" d="M127.4,53.5l-2.7,0c0,0,0.3-3.9-4.3-7.9c-8-6.8-26.2-8.2-38.7-3.6H46.2
	c-12.5-4.6-30.8-3.2-38.7,3.6c-4.6,4-4.3,7.9-4.3,7.9s-1,0-2.7,0C0.4,54.9,0,60.9,0,60.9s1.3,0.1,2.8,0.5
	c0.2,28.3,19.4,27.8,29.7,27C43.3,87.6,57.8,72.9,59.1,58c0.1-0.6,0.1-1.3,0-1.9h9.7c0,0.6,0,1.2,0,1.9
	c1.3,14.9,15.8,29.6,26.7,30.4c10.3,0.8,29.4,1.3,29.7-27c1.4-0.4,2.8-0.5,2.8-0.5L127.4,53.5z M55.9,58.6
	C54.8,72,41.8,85.1,32.1,85.8C23,86.5,5.9,87,5.7,61.7v-0.2c0.8-0.1,2-0.3,3.4-0.4c4.5-0.5,11.1-1.1,12.2-0.1
	c1.8,1.5,6.5,12.1,7.4,14c0.9,2,2.4-0.8,2.9-2c0.5-1.2,0.1-2.1,0.1-2.1s-6.5-9.9-8.9-12.9c-1.5-1.9-8.2-3.1-12.8-3.6
	C8.6,54.2,7.3,54,6.6,54c0.6-2.4,1.6-4.9,3.3-6.3C21.5,37.7,57.5,40.7,55.9,58.6z M58.6,52.8c-1-3.1-3.2-5.7-6.2-7.7h23.4
	c-3,2-5.2,4.6-6.2,7.7H58.6z M122.3,61.7C122.1,87,105,86.5,95.9,85.8C86.2,85.1,73.2,72,72.1,58.6c-1.6-18,34.4-21,46-11
	c1.7,1.5,2.7,3.9,3.3,6.3c-0.2,0-0.6,0.1-1,0.1c-3.8,0.6-13.7,2.2-15.5,4.7c-2.2,3.1-8.3,13.3-8.3,13.3s-0.4,1,0.2,2.1
	c0.6,1.1,2.1,3.8,3,1.8c0.8-2,5-12.8,6.7-14.4c1.4-1.2,10.9-0.6,14.9-0.3c0.4,0,0.7,0.1,0.9,0.1V61.7z"/>
<path id="eyewear" class="st0" d="M118.7,53.7c-4.1-7-14.2-11.9-23.8-11.9c-9.3,0-18.8,4.4-23,10.6c-4.9-1.5-11.7-1.5-16.6,0
	c-4.2-6.2-13.6-10.6-23-10.6c-9.5,0-19.6,4.9-23.8,11.9C5.8,56.5,0,57.3,0,57.3v5.1c0,0,5.7,0.2,6.9,0.5
	c2.3,10.8,9.5,21.5,24.2,21.5c14.7,0,23.7-9.7,26.2-23.1c0.1-0.6,0.5-2.8,2.3-3.9c1.2-0.7,3.2-0.8,4-0.8c0.8,0,2.8,0.1,4,0.8
	c1.8,1.1,2.2,3.3,2.3,3.9c2.6,13.4,11.5,23.1,26.2,23.1c14.7,0,21.9-10.7,24.2-21.5c1.2-0.3,6.9-0.5,6.9-0.5v-5.1
	C127.3,57.3,121.5,56.5,118.7,53.7z M31.1,82.7C19,82.7,9.7,73.3,9.7,62.5s10.5-18.6,22.5-18.6s21.8,6,21.8,16.9
	S44.8,82.7,31.1,82.7z M96.2,82.7c-13.8,0-23.1-11.1-23.1-21.9S82.9,43.9,95,43.9c12.1,0,22.6,7.8,22.6,18.6S108.2,82.7,96.2,82.7z
	 M59.7,60.9c0,10.1-8.6,20.5-21.3,20.5c-11.1,0-19.7-8.7-19.7-18.8s9.7-17.4,20.8-17.4S59.7,50.8,59.7,60.9z M102.8,45.2
	c11.1,0,20.8,7.3,20.8,17.4s-8.6,18.8-19.7,18.8c-12.7,0-21.3-10.4-21.3-20.5S91.7,45.2,102.8,45.2z M126.6,62.3l-60.8,5.3
	c0,0-22.1,0.4-27.5,1.7c-5.2,1.2-14.3,9.1-16,10.3c-1.2,0.9-7.9,6.4-9.6,6.6s-2.9-0.9-3.4-2.3c-0.6-1.4,2-2.8,4.3-4.4
	S25.6,71,29.7,68.6c2.2-1.2,5-3.2,10.7-3.7c3.7-0.3,84.7-8.8,84.7-8.8L126.6,62.3z M17.3,56.2c0,0,82.1,8.3,85.8,8.7
	c5.7,0.5,8.5,2.4,10.7,3.6c4.1,2.3,13.9,9.1,16.2,10.8c2.3,1.6,4.9,3,4.4,4.4c-0.5,1.4-1.7,2.5-3.4,2.3s-8.4-5.6-9.6-6.5
	c-1.7-1.2-10.9-9.1-16.1-10.3c-5.4-1.2-27.5-1.6-27.5-1.6l-61.9-5.1L17.3,56.2z"/>
<path id="eyewear_4_" class="st0" d="M127.8,49.6c-1.1-1.9-37.3-3.1-47.9-0.7C76.2,49.7,66.5,52,64,52.6c0,0,0,0,0,0
	c-2.4-0.6-12.2-3-15.9-3.8c-10.7-2.4-46.8-1.2-47.9,0.7c-0.4,0.8,0,9.1,0,9.1s1.7,1.6,2.1,2.9c0.4,1.4,0.6,2.7,0.6,2.7h2
	c0,0.2,0.1,0.5,0.1,0.7c1,5,2.2,10.2,3.1,11.4c2.5,3.3,6.7,3.6,11.1,3.9l0.3,0c1.7,0.1,5.5,0.2,9.7,0.2c7.1,0,15.3-0.1,16.5-0.2
	c2.9-0.1,7.1-2.5,8-5.4c0,0,0-0.1,0.1-0.3c0.3,0.1,0.6,0.1,0.6,0.1s1.3-3.7,2.3-7.4l1.1,0.6c-0.4,1.3-1.1,2.7-2.1,3.8l1.6,1.4
	c3.9-4.5,3.4-11.5,3.4-11.8l-2.1,0.2c0,0,0.1,2-0.3,4.4l-1.1-0.6c0.4-1.5,0.6-3,0.7-4.1c0.1-1.9,3.1-2.8,6.2-2.8c3,0,6,0.9,6.2,2.8
	c0.1,1.1,0.3,2.6,0.7,4.1l-1.1,0.6c-0.4-2.4-0.3-4.3-0.3-4.4l-2.1-0.2c0,0.3-0.5,7.3,3.4,11.8l1.6-1.4c-1-1.1-1.6-2.5-2.1-3.8
	l1.1-0.6c1,3.8,2.3,7.4,2.3,7.4s0.3,0,0.6-0.1c0,0.2,0.1,0.2,0.1,0.3c0.8,2.9,5,5.3,8,5.4c1.2,0.1,9.4,0.2,16.5,0.2
	c4.2,0,8,0,9.7-0.2l0.3,0c4.4-0.3,8.6-0.6,11.1-3.9c1-1.3,2.1-6.4,3.1-11.4c0-0.2,0.1-0.5,0.1-0.7h2c0,0,0.2-1.3,0.6-2.7
	c0.4-1.3,2.1-2.9,2.1-2.9S128.2,50.3,127.8,49.6z M55.7,61.8c-1.7,2.5-5.4,5.6-5.4,5.6s2.4,1.3,3.7,2.2c-0.5,2-1,3.9-1.4,5.1
	c-0.7,2.4-4.4,4.6-7,4.7c-1.9,0.1-21.6,0.3-26.1,0l-0.3,0c-4.4-0.3-8.1-0.6-10.3-3.5c-0.8-1.1-2-6.4-3-11.5h0.2c0,0-0.9-4.4-0.9-7.1
	c2.4-0.3,13.7-1.5,16,0.1c2.6,1.7,12.1,12.5,12.2,12.7c0.2,0.3,1.6,0.1,1.2-0.9c-0.3-1-9.8-13.8-13.2-15.3c-2.6-1.2-7-2-8.9-2.4
	c4.7-0.5,15.5-0.7,22.8-0.7c6.6,0.3,12.3,1,14.7,1.7c4.6,1.4,5.3,4.4,5.8,6.3l0.1,0.3C56,59.5,55.9,60.5,55.7,61.8z M122.1,64.3
	c-1,5.1-2.2,10.4-3,11.5c-2.2,2.9-6,3.2-10.3,3.5l-0.3,0c-4.5,0.3-24.2,0.1-26.1,0c-2.6-0.1-6.3-2.3-7-4.7c-0.4-1.2-0.8-3.1-1.4-5.1
	c1.3-0.8,3.7-2.2,3.7-2.2s-3.7-3.1-5.4-5.6c-0.2-1.3-0.3-2.2-0.2-2.7l0.1-0.3c0.5-2,1.2-5,5.8-6.3c2.4-0.7,8.1-1.4,14.7-1.7
	c7.3,0,18.1,0.1,22.8,0.7c-1.8,0.3-6.2,1.1-8.9,2.4C103.2,55.3,93.7,68,93.3,69c-0.3,1,1,1.2,1.2,0.9c0.1-0.2,9.6-11,12.2-12.7
	c2.3-1.5,13.7-0.3,16-0.1c0,2.7-0.9,7.1-0.9,7.1H122.1z"/>
<path id="sunglass:4_1_" class="st0" d="M11.6,79.6l-4.5,4.8c-1.4,1.5-3.7,1.5-5.2,0.2h0c-1.5-1.4-1.5-3.7-0.2-5.2l4.5-4.8
	C8.7,76.7,9.2,77.3,11.6,79.6z M116.8,79.5l4.4,4.8c1.4,1.5,3.7,1.6,5.2,0.3h0c1.5-1.4,1.6-3.7,0.3-5.2l-4.4-4.8
	C119.7,76.7,119.2,77.3,116.8,79.5z M127.4,52.9c0,0-2.4,0.7-3.1,4.9c-2.2,12.1-3.6,23-24.8,23.6c-10.5,0.3-17.7-1.7-23.1-6.9
	c-3.6-3.5-6.2-8.8-9.1-15.6c-0.6-1.4-1.5-2-3.1-2.1c-0.7,0,0.3,0-0.3,0c-1.6,0.1-2.6,0.7-3.1,2.1c-3.4,8-6.3,13.5-10.8,17
	c-5.1,4-12,5.8-21.3,5.5C7.3,80.7,5.9,69.9,3.7,57.7c-0.7-4.2-3.1-4.9-3.1-4.9s-1.3-7.2,0-8.3c1.3-1.1,11.6-2,17.8-2.1
	c10.5-0.1,20,0.1,28.6,2.1c5,1.1,10.4,3.8,16.7,3.8c0.5,0,0.5,0,0.4,0c0.1,0,0.1,0,0.2,0c6.3,0,11.7-2.6,16.7-3.8
	c8.7-2,18.1-2.1,28.7-2.1c6.2,0.1,16.6,1,17.8,2.1C128.7,45.6,127.4,52.9,127.4,52.9z M51.9,50.1c-5.2-3.8-17.5-5.3-27.6-5.2
	c-9.5,0.7-12.3,0.6-15.4,5.9C5,57.6,8.7,69.1,11,71.6c6.6,8.8,28.6,8.5,37.4,1.4C52.8,69.4,58.5,54.9,51.9,50.1z M119,50.8
	c-3.1-5.3-5.9-5.2-15.4-5.9c-10.1-0.1-22.4,1.4-27.6,5.2c-6.6,4.8-0.9,19.3,3.5,22.9c8.7,7.1,30.9,7.4,37.4-1.4
	C119.3,69.1,123,57.6,119,50.8z M64,48.3C63.6,48.3,63.9,48.3,64,48.3L64,48.3z"/>
<path id="sunglass:3_1_" class="st0" d="M11.8,84.4L5.9,88c-1.8,1.1-4.2,0.5-5.3-1.3l0,0c-1.1-1.8-0.5-4.2,1.3-5.3l5.9-3.6
	C9.6,80.7,10,81.4,11.8,84.4z M116.2,85.6l5.8,3.8c1.8,1.2,4.2,0.6,5.3-1.1v0c1.2-1.8,0.6-4.2-1.1-5.3l-5.8-3.8
	C118.5,81.9,118.1,82.6,116.2,85.6z M122.6,46.5c0.3,0,4.7-1,4.7-1v11.3c0,0-2,0.1-3.3,0.4c0,14.3-8.7,32.7-23.8,32.7
	c-22.6,0-30.7-12.8-30.9-26.9c0-2.9-9.7-2.9-9.7-0.2C59.6,77,51.5,89.9,28.8,89.9C13.7,89.9,5,71.5,5,57.2C3.7,57.1,1.4,57,1.4,57
	V46.4c0,0,3.9,0.2,5,0.1c2.2-6.2,7.4-8.5,17.9-8.5c24.9,0,34.1,15.4,40.1,15.4c6.4,0,14.9-15.4,40.4-15.4
	C115.2,38.1,120.4,40.4,122.6,46.5z M55.8,62.7c0-15.2-17.4-21-30.4-21c-13,0-16.6,4.2-16.6,16.4c0,12.3,7.5,28,20.4,28
	C48.9,86.2,55.8,75,55.8,62.7z M120.2,58.2c0-12.3-3.6-16.4-16.6-16.4c-13,0-30.4,5.8-30.4,21c0,12.3,6.9,23.5,26.5,23.5
	C112.7,86.2,120.2,70.5,120.2,58.2z"/>
<path id="sunglass:2_1_" class="st0" d="M120.4,74.8l3.5,4.6c1.1,1.4,0.8,3.4-0.6,4.5h0c-1.4,1.1-3.4,0.8-4.5-0.6l-3.5-4.6
	C117.6,76.9,118.1,76.4,120.4,74.8z M6.8,73.7l-3.9,4.2c-1.2,1.3-1.1,3.3,0.1,4.5h0c1.3,1.2,3.3,1.1,4.5-0.1l3.9-4.2
	C9.4,76.1,8.9,75.5,6.8,73.7z M128,45v7.6c0,0-3.2,0.2-4,2.9c-0.8,2.7-3.5,13.9-4.4,15.9c-0.8,1.9-1.3,3.4-6.9,3.8
	c-5.5,0.4-28.3,0.1-31.6-0.2c-3.8-0.3-7.7-3.1-9-8.4c-1.3-5.4-1.1-9.3-2.7-11.5c-1.7-2.3-5.2-2.3-5.2-2.3h-0.4c0,0-3.5,0-5.2,2.3
	c-1.5,2.2-1.4,6.1-2.7,11.5c-1.5,6.4-5.9,8.1-9.6,8.6c-3.4,0.4-26.1,0.8-31.6,0.4s-5.4-2.2-6.4-4.3c-0.9-2-3.6-13.2-4.4-15.9
	c-0.8-2.7-4-2.9-4-2.9V45c0,0,15.2-1.7,28.8-1.4C42.5,43.9,64,47.4,64,47.4s21.5-3.5,35.1-3.8C112.8,43.3,128,45,128,45z M55.4,53.3
	c0.4-2.4-11.1-5.7-22.6-5.7c-11.1,0-27.8,1.2-26.8,4.7l4.2,16c0.8,2.4,2,4.3,4.1,4.3l30-0.1c3.4,0.1,6.8-1.9,8.2-6.1L55.4,53.3z
	 M95.3,47.6c-11.5,0-22.8,3.3-22.6,5.7l3,13.6c1.2,4.4,4.9,5.6,6.8,5.6l31.6-0.1c2.1,0,3-2,3.7-4.2l4.2-16
	C123,48.8,106.4,47.6,95.3,47.6z"/>
<path id="sunglass:1_1_" class="st1" d="M125.5,83.1l-3.9-4.4c-2.3,1.8-2.7,2.4-4.9,4.3l3.9,4.4c1.2,1.4,3.3,1.5,4.6,0.3
	c0.7-0.6,1.1-1.6,1.1-2.5C126.3,84.5,126,83.7,125.5,83.1z M6.2,77.7l-4.5,3.8c-1.4,1.2-1.5,3.3-0.4,4.6c0.6,0.8,1.6,1.1,2.5,1.1
	c0.8,0,1.5-0.3,2.1-0.8l4.5-3.8C8.6,80.4,8.2,79.8,6.2,77.7z M4.9,58.3H4.5c-0.1,1-0.2,2-0.2,3h0.6c0.8,0,1.4-0.6,1.4-1.4v-0.2
	C6.2,58.9,5.6,58.3,4.9,58.3z M4.9,58.3H1.4c-0.8,0-1.4,0.6-1.4,1.4v0.2c0,0.8,0.6,1.4,1.4,1.4h3.5c0.8,0,1.4-0.6,1.4-1.4v-0.2
	C6.2,58.9,5.6,58.3,4.9,58.3z M126.6,58.3h-3c-0.9-7.6-4.5-15-11.2-16.9c-9.8-2.8-21-1.8-24.6-1.3H40.3c-3.7-0.5-14.9-1.5-24.6,1.3
	C9,43.2,5.4,50.6,4.5,58.3h0.4c0.8,0,1.4,0.6,1.4,1.4v0.2c0,0.8-0.6,1.4-1.4,1.4H4.3c0,0.4,0,0.8,0,1.2c0,14,8.3,22.3,22.3,22.3
	c10.5,0,23.7-11,29.4-24.5c0.8-1.9,1.3-3.8,1.4-5.6h0c0-2.8,3-5,6.8-5c3.7,0,6.8,2.2,6.8,5h0c0.1,1.8,0.6,3.7,1.4,5.6
	c5.7,13.5,18.9,24.5,29.4,24.5c13.9,0,22.3-8.3,22.3-22.3c0-0.4,0-0.8,0-1.2h2.7c0.8,0,1.4-0.6,1.4-1.4v-0.2
	C128,58.9,127.4,58.3,126.6,58.3z M53.9,59.4C48.5,71.9,36,82.5,26.5,82.5c-12.8,0-20.1-7.3-20.1-20.1c0-8.1,3.1-17.1,9.9-19
	c4.6-1.3,9.8-1.8,14.8-1.8c3.3,0,6.5,0.2,9.1,0.6h0c0.1,0,0.1,0,0.2,0c6.7,0.9,11.4,3.3,13.5,7C55.5,52,55.5,55.6,53.9,59.4z
	 M71.4,50.5c-1.6-1.8-4.3-3-7.3-3c-3,0-5.7,1.2-7.3,3c-0.3-0.8-0.6-1.6-1-2.3c-1.4-2.5-3.8-4.5-7-5.9h30.6c-3.2,1.4-5.6,3.4-7,5.9
	C71.9,48.9,71.6,49.6,71.4,50.5z M101.6,82.5c-9.5,0-22-10.6-27.4-23.2c-1.6-3.8-1.6-7.3,0-10.1c2.1-3.7,6.8-6.1,13.6-7
	c0,0,0.1,0,0.2,0h0c6.6-0.8,16.3-1,23.9,1.2c6.8,1.9,9.8,11,9.8,19C121.7,75.2,114.4,82.5,101.6,82.5z"/>
</svg>
