<?xml version="1.0" encoding="utf-8"?>
<!-- Generator: Adobe Illustrator 28.6.0, SVG Export Plug-In . SVG Version: 9.03 Build 54939)  -->
<svg version="1.0" id="Layer_1" xmlns="http://www.w3.org/2000/svg" xmlns:xlink="http://www.w3.org/1999/xlink" x="0px" y="0px"
	 viewBox="0 0 64 64" style="enable-background:new 0 0 64 64;" xml:space="preserve">
<style type="text/css">
	.st0{fill:none;stroke:#FFFFFF;stroke-width:2;stroke-linecap:round;stroke-linejoin:round;stroke-miterlimit:10;}
</style>
<g>
	<circle class="st0" cx="32" cy="32" r="19.3"/>
	<path class="st0" d="M61.7,32c0,3-4.4,5.2-5.2,7.9c-0.9,2.8,1.3,7.2-0.4,9.5c-1.7,2.3-6.6,1.6-8.9,3.3c-2.3,1.7-3.1,6.5-5.9,7.5
		c-2.7,0.9-6.2-2.6-9.2-2.6c-3,0-6.5,3.4-9.2,2.6c-2.8-0.9-3.6-5.8-5.9-7.5c-2.3-1.7-7.2-1-8.9-3.3c-1.7-2.3,0.5-6.7-0.4-9.5
		C6.7,37.2,2.3,35,2.3,32c0-3,4.4-5.2,5.2-7.9c0.9-2.8-1.3-7.2,0.4-9.5c1.7-2.3,6.6-1.6,8.9-3.3c2.3-1.7,3.1-6.5,5.9-7.5
		C25.5,2.9,29,6.3,32,6.3c3,0,6.5-3.4,9.2-2.6c2.8,0.9,3.6,5.8,5.9,7.5c2.3,1.7,7.2,1,8.9,3.3c1.7,2.3-0.5,6.7,0.4,9.5
		C57.3,26.8,61.7,29,61.7,32z"/>
	<path class="st0" d="M27.2,36.8L27.2,36.8c0,2.1,1.7,3.7,3.7,3.7h2.1c2.1,0,3.7-1.7,3.7-3.7v-1c0-2.1-1.7-3.7-3.7-3.7h-2.1
		c-2.1,0-3.7-1.7-3.7-3.7v-1c0-2.1,1.7-3.7,3.7-3.7h2.1c2.1,0,3.7,1.7,3.7,3.7v0"/>
	<line class="st0" x1="32" y1="19" x2="32" y2="23.5"/>
	<line class="st0" x1="32" y1="40.5" x2="32" y2="45"/>
</g>
</svg>
