<?xml version="1.0" encoding="utf-8"?>
<!-- Generator: Adobe Illustrator 28.1.0, SVG Export Plug-In . SVG Version: 6.00 Build 0)  -->
<svg  version="1.1" id="Outline" xmlns="http://www.w3.org/2000/svg" xmlns:xlink="http://www.w3.org/1999/xlink" x="0px" y="0px"
	 viewBox="0 0 48 48" enable-background="new 0 0 48 48" xml:space="preserve">
<g>
	<path fill ="#FFFFFF" d="M40.85578,38.36565c-0.00897-0.01471-4.83755-7.93919-6.24633-10.25121c2.10838-2.45176,3.39202-5.63193,3.39202-9.11178
		C38.00148,11.28147,31.72054,5,24,5S9.99852,11.28147,9.99852,19.00266c0,3.47985,1.28358,6.66002,3.39196,9.11178
		L7.14422,38.36572c-0.35282,0.57915-0.02826,1.34565,0.63245,1.49589c0.01172,0.00269,2.75365,0.62609,2.75365,0.62609
		s1.82392,2.16399,1.82404,2.16413c0.43281,0.51344,1.2696,0.44819,1.61876-0.12431
		c0.01892-0.03107,4.72608-7.75025,6.14719-10.08078C21.35403,32.8035,22.65294,33.00532,24,33.00532
		s2.64603-0.20182,3.87974-0.55858c0,0,6.13849,10.06663,6.14718,10.08088c0.33132,0.54334,1.17345,0.65254,1.61883,0.12406
		c0.00201-0.00238,1.82392-2.16399,1.82392-2.16399l2.75371-0.62609C40.88118,39.71222,41.20824,38.94419,40.85578,38.36565z
		 M12.9881,40.30017L11.84344,38.942c-0.14015-0.16653-0.33109-0.28228-0.54303-0.33063l-1.7243-0.39217l5.2685-8.64654
		c1.00719,0.87376,2.13823,1.60364,3.36547,2.16405L12.9881,40.30017z M24,31.00494c-6.6174,0-12.00127-5.38432-12.00127-12.00228
		S17.3826,7.00038,24,7.00038s12.00127,5.38432,12.00127,12.00228S30.6174,31.00494,24,31.00494z M36.69958,38.61137
		c-0.21194,0.04835-0.40287,0.16409-0.54303,0.33063l-1.14465,1.35817l-5.22198-8.56346
		c1.22724-0.56041,2.35828-1.29028,3.36547-2.16405l5.2685,8.64654L36.69958,38.61137z"/>
	<path fill ="#FFFFFF" d="M32.94723,22.22685c-0.09425-0.55089,0.05665-1.11294,0.41264-1.54271c0.83139-0.99989,0.83078-2.3619,0.00049-3.363
		c-0.35648-0.42977-0.50738-0.99183-0.41313-1.54271c0.21896-1.28381-0.46233-2.4614-1.68188-2.91272
		c-0.52392-0.19388-0.9351-0.60503-1.12897-1.12906c-0.44591-1.20329-1.63933-1.90374-2.91248-1.68196
		c-0.54937,0.09572-1.11285-0.05665-1.54258-0.41268c-1.0089-0.83903-2.35376-0.83854-3.36266-0.00049
		c-0.42924,0.35651-0.99327,0.50791-1.54264,0.41316c-1.27693-0.21861-2.46291,0.46713-2.91242,1.68202
		c-0.19387,0.52396-0.60505,0.93517-1.12903,1.12906c-1.2234,0.45284-1.89772,1.6504-1.68182,2.91266
		c0.09425,0.55089-0.05665,1.113-0.41264,1.54277c-0.82534,0.99262-0.82736,2.36599-0.00043,3.363
		c0.35642,0.42977,0.50732,0.99183,0.41307,1.54271c-0.21792,1.27759,0.46581,2.46263,1.68188,2.91266
		c0.52398,0.19388,0.9351,0.60509,1.12897,1.12912c0.45476,1.22875,1.64709,1.8966,2.91242,1.68196
		c0.54986-0.09328,1.1134,0.05665,1.54264,0.41268c0.97835,0.81355,2.38376,0.81371,3.36266,0.00049
		c0.42973-0.357,0.99229-0.50693,1.54264-0.41316c1.27138,0.21763,2.46443-0.47122,2.91242-1.68202
		c0.19393-0.52402,0.60505-0.93517,1.12903-1.12906C32.48356,24.68862,33.16704,23.51176,32.94723,22.22685z M31.82114,19.40649
		c-0.72957,0.87962-1.03819,2.03023-0.84579,3.1574c0.06006,0.34827-0.07526,0.57817-0.40391,0.69917
		c-1.07232,0.39674-1.91469,1.23919-2.31122,2.31117c-0.12233,0.3327-0.37211,0.46078-0.69935,0.40437
		c-1.13049-0.19486-2.2785,0.11575-3.15701,0.84587c-0.28713,0.23832-0.52055,0.23833-0.80768,0.00002
		c-0.87067-0.72263-2.04227-1.03623-3.15709-0.84588c-0.34659,0.06349-0.57892-0.07741-0.69911-0.40395
		c-0.39671-1.07241-1.23908-1.91485-2.31097-2.31141c-0.33048-0.12154-0.46404-0.35175-0.40446-0.69862
		c0.19253-1.1279-0.1161-2.27851-0.84567-3.15807c-0.22134-0.26671-0.22299-0.53886-0.00031-0.80747
		c0.72987-0.87987,1.0385-2.03048,0.8461-3.15764c-0.05964-0.34601,0.07209-0.57708,0.40397-0.69923
		c1.07226-0.39668,1.91463-1.23913,2.31116-2.31111c0.12074-0.32599,0.35081-0.46518,0.69899-0.40444
		c1.13031,0.19297,2.27838-0.11617,3.15738-0.8458c0.28714-0.23833,0.52056-0.23833,0.8077,0
		c0.87949,0.72963,2.02805,1.03975,3.15707,0.84586c0.34556-0.06038,0.57697,0.07411,0.69929,0.40431
		c0.39652,1.07204,1.2389,1.91449,2.31079,2.31105c0.32065,0.11788,0.46392,0.35285,0.4044,0.69886
		c-0.19246,1.12766,0.11616,2.27826,0.84573,3.15783C32.03887,18.86109,32.04259,19.13965,31.82114,19.40649z"/>
	<path fill ="#FFFFFF" d="M28.65137,16.951l-2.58182-0.39412l-1.16418-2.47996c-0.16506-0.35114-0.51763-0.5753-0.90537-0.5753
		s-0.74031,0.22416-0.90537,0.5753l-1.16418,2.47996L19.34863,16.951c-0.37065,0.05665-0.6783,0.31598-0.79745,0.67151
		c-0.11915,0.35554-0.0293,0.7477,0.23245,1.01582l1.89766,1.94519l-0.44975,2.75883c-0.06202,0.378,0.09767,0.75844,0.41069,0.9787
		c0.314,0.22075,0.72469,0.24321,1.06017,0.05763L24,23.10842c0,0,2.29761,1.27026,2.29766,1.27029
		c0.33432,0.18441,0.74747,0.16201,1.06012-0.05766c0.31302-0.22026,0.47271-0.6007,0.41069-0.9787l-0.44975-2.75883
		l1.89766-1.94519c0.26175-0.26812,0.3516-0.66028,0.23245-1.01582C29.32966,17.26698,29.02201,17.00765,28.65137,16.951z
		 M25.53434,19.54818c-0.2217,0.22709-0.3223,0.546-0.27102,0.85954l0.19973,1.22387c0,0-0.97871-0.5409-0.97911-0.54112
		c-0.28234-0.15604-0.66193-0.16987-0.96788,0l-0.97911,0.54112l0.19973-1.22387c0.05128-0.31354-0.04932-0.63244-0.27102-0.85954
		l-0.89121-0.91326l1.18567-0.18119c0.32963-0.05079,0.61286-0.26226,0.75447-0.56407L24,16.85577l0.4854,1.03389
		c0.14162,0.30182,0.42485,0.51328,0.75447,0.56407l1.18567,0.18119L25.53434,19.54818z"/>
</g>
</svg>
