<svg xmlns="http://www.w3.org/2000/svg" width="128" height="128" viewBox="0 0 128 128">
  <title>MAINTENANCE</title>
  <path fill="#FFFFFF" d="M87.135,66.982a4.75,4.75,0,0,0-5.241-.993l-3.14-3.139,9.178-9.177a24.946,24.946,0,0,0,33.5-29.761,1.75,1.75,0,0,0-2.923-.769L112.3,29.36A9.656,9.656,0,1,1,98.637,15.708l6.219-6.21a1.751,1.751,0,0,0-.765-2.924,24.854,24.854,0,0,0-25.114,7.2,25.275,25.275,0,0,0-4.637,26.3L60.92,53.5,32.037,24.611l1.079-6.368a1.75,1.75,0,0,0-.885-1.827L13.461,6.135a1.749,1.749,0,0,0-2.078.3l-4.95,4.95a1.75,1.75,0,0,0-.3,2.078l10.28,18.77a1.75,1.75,0,0,0,1.828.885l6.368-1.079L53.5,60.92l-44.712,44.7a9.622,9.622,0,0,0,.935,14.42,9.756,9.756,0,0,0,12.849-1.015L62.85,78.755l3.136,3.135a4.732,4.732,0,0,0,1,5.244l33.556,33.556a4.748,4.748,0,0,0,6.717,0l13.434-13.435a4.745,4.745,0,0,0,0-6.717Zm-18.913,12.2L64.447,75.4a1.23,1.23,0,0,1,0-1.766l9.2-9.2a1.225,1.225,0,0,1,1.758.006l3.775,3.775ZM77.658,41.7a1.752,1.752,0,0,0,.348-1.977A21.724,21.724,0,0,1,81.56,16.133a21.357,21.357,0,0,1,18.519-6.81l-3.918,3.911a13.156,13.156,0,0,0,18.607,18.6l3.911-3.911a21.444,21.444,0,0,1-30.394,22.08,1.751,1.751,0,0,0-1.982.346L75.876,60.779a4.693,4.693,0,0,0-4.713,1.194l-.883.882L63.394,55.97ZM24.917,28.435l-6.031,1.022L9.835,12.93,12.93,9.835l16.526,9.051-1.021,6.031a1.748,1.748,0,0,0,.488,1.53L67.805,65.33,65.33,67.805,26.447,28.923A1.747,1.747,0,0,0,24.917,28.435Zm-4.827,88.12a6.252,6.252,0,0,1-8.228.722,6.117,6.117,0,0,1-.605-9.179L55.97,63.4l6.885,6.885-.877.877a4.7,4.7,0,0,0-1.2,4.719Zm90.17-3.82L87.327,89.8A1.75,1.75,0,0,1,89.8,87.327l22.932,22.933Zm7.955-7.955h0l-3.005,3L92.277,84.852a5.25,5.25,0,0,0-7.425,7.425l22.934,22.932-3.006,3.006a1.279,1.279,0,0,1-1.767,0L69.457,84.659a1.249,1.249,0,0,1,0-1.767L82.892,69.457a1.251,1.251,0,0,1,1.768,0l33.555,33.556A1.248,1.248,0,0,1,118.215,104.78Z"/>
</svg>
